<svg xmlns="http://www.w3.org/2000/svg" viewBox="0 0 44 44"><defs><style>.cls-1{opacity:0.3;}.cls-2,.cls-3{fill:none;}.cls-3{stroke:#000;stroke-linecap:round;stroke-linejoin:round;stroke-width:2px;}</style></defs><g id="레이어_2" data-name="레이어 2"><g id="레이어_1-2" data-name="레이어 1"><g class="cls-1"><rect class="cls-2" width="44" height="44"/></g><path class="cls-3" d="M21.91,25.59A13.2,13.2,0,0,1,8.84,12.26,34.36,34.36,0,0,1,10.92,2"/><line class="cls-3" x1="10.96" y1="2" x2="21.91" y2="2"/><path class="cls-3" d="M9.3,7.83a6.16,6.16,0,0,0,1.47,12.22"/><path class="cls-3" d="M22.09,25.59A13.2,13.2,0,0,0,35.16,12.26,34.36,34.36,0,0,0,33.08,2"/><line class="cls-3" x1="33.04" y1="2" x2="22.09" y2="2"/><path class="cls-3" d="M34.7,7.83a6.16,6.16,0,0,1-1.47,12.22"/><line class="cls-3" x1="19.9" y1="25.59" x2="19.9" y2="33.79"/><line class="cls-3" x1="23.92" y1="25.59" x2="23.92" y2="33.79"/><path class="cls-3" d="M31.12,9.45A11.26,11.26,0,0,1,30,16.36"/><line class="cls-3" x1="27.94" y1="19.44" x2="26.93" y2="20.46"/><rect class="cls-3" x="16.88" y="33.79" width="10.05" height="3.08"/><path class="cls-3" d="M15.86,37.9H28a4,4,0,0,1,4,4V42a0,0,0,0,1,0,0H11.86a0,0,0,0,1,0,0v-.1a4,4,0,0,1,4-4Z"/></g></g></svg>