<svg xmlns="http://www.w3.org/2000/svg" viewBox="0 0 44 44"><defs><style>.cls-1{opacity:0.3;}.cls-2,.cls-3{fill:none;}.cls-3{stroke:#000;stroke-linecap:round;stroke-linejoin:round;stroke-width:2px;}</style></defs><g id="레이어_2" data-name="레이어 2"><g id="레이어_1-2" data-name="레이어 1"><g class="cls-1"><rect class="cls-2" width="44" height="44"/></g><path class="cls-3" d="M18.6,28.43c-2,3.87-2.17,5-2,7.75.23,2.93,2.28,5.63,2,5.81-.11.07-.4-.28-.49-.33-2.45-1.61-5.81-3.7-7.32-6.74a9.18,9.18,0,0,1-.47-6.22c2-10,8.85-9.46,8-26.41-.07-1.51,4.77,3.16,6.73,8,2.59,6.38-.93,9.29.71,12.09a1.68,1.68,0,0,0,2.67.23c1-1-.28-3.16.06-3.18a.05.05,0,0,1,0,0c2.18,1.81,4.74,3.15,5.36,9.24.49,4.8-.54,8.17-2.61,10.35s-5.05,3.17-5.3,2.82c-.1-.13.23-.48.49-.85,1.73-2.46,1.44-6.34,1-7.75a9.22,9.22,0,0,0-1-2.22,29,29,0,0,0-2.92-3.59c-2.65-3.11-1.49-7.73-2-7.75S20.92,23.87,18.6,28.43Z"/></g></g></svg>