<svg xmlns="http://www.w3.org/2000/svg" viewBox="0 0 44 44"><defs><style>.cls-1{opacity:0.3;}.cls-2,.cls-3,.cls-4,.cls-5{fill:none;}.cls-3,.cls-4,.cls-5{stroke:#000;stroke-width:2px;}.cls-3,.cls-5{stroke-linecap:round;}.cls-3,.cls-4{stroke-miterlimit:10;}.cls-5{stroke-linejoin:round;}</style></defs><g id="레이어_2" data-name="레이어 2"><g id="레이어_1-2" data-name="레이어 1"><g class="cls-1"><rect class="cls-2" width="44" height="44"/></g><path class="cls-3" d="M14.26,35a17.48,17.48,0,0,1-7.87-7.87"/><path class="cls-3" d="M37.61,27.17A17.48,17.48,0,0,1,29.74,35"/><path class="cls-3" d="M11.68,5.39a17.4,17.4,0,0,1,20.64,0"/><ellipse class="cls-4" cx="22" cy="23.72" rx="3.57" ry="3.72"/><path class="cls-5" d="M25.89,41.45a2.25,2.25,0,0,1-.78.15h-6A2.13,2.13,0,0,1,17,39.49l.93-7.71a2.12,2.12,0,0,1,2.14-2.1h4.11a2.11,2.11,0,0,1,2.13,2.1L27,37.47"/><circle class="cls-4" cx="38" cy="8.69" r="3.23"/><path class="cls-5" d="M41.52,24.54a2.08,2.08,0,0,1-.71.12h-5.4a1.88,1.88,0,0,1-1.93-1.82l.85-6.68a1.87,1.87,0,0,1,1.93-1.82H40a1.88,1.88,0,0,1,1.94,1.82l.62,4.93"/><circle class="cls-4" cx="6" cy="8.69" r="3.23"/><path class="cls-5" d="M9.52,24.54a2.08,2.08,0,0,1-.71.12H3.41a1.88,1.88,0,0,1-1.93-1.82l.85-6.68a1.87,1.87,0,0,1,1.93-1.82H8A1.88,1.88,0,0,1,9.9,16.16l.62,4.93"/></g></g></svg>