<svg xmlns="http://www.w3.org/2000/svg" viewBox="0 0 44 44"><defs><style>.cls-1{opacity:0.3;}.cls-2,.cls-3{fill:none;}.cls-3{stroke:#000;stroke-linecap:round;stroke-linejoin:round;stroke-width:2px;}</style></defs><g id="레이어_2" data-name="레이어 2"><g id="레이어_1-2" data-name="레이어 1"><g class="cls-1"><rect class="cls-2" width="44" height="44"/></g><path class="cls-3" d="M22,39.85A68.33,68.33,0,0,1,9.94,30C4,23.94,3,20.61,2.72,19.59,2.21,17.66,1,13.08,3.69,9c.22-.35,3.4-5,8.68-4.83,4.43.16,8.49,3.68,9.65,8.69"/><path class="cls-3" d="M22,39.85A68.33,68.33,0,0,0,34.06,30c6-6.09,6.95-9.42,7.22-10.44.51-1.93,1.73-6.51-1-10.61-.22-.35-3.4-5-8.68-4.83-4.43.16-8.49,3.68-9.65,8.69"/><path class="cls-3" d="M38,15a18.4,18.4,0,0,1-1.33,4A15.82,15.82,0,0,1,34,23"/><line class="cls-3" x1="31" y1="26" x2="30" y2="27"/></g></g></svg>