<svg xmlns="http://www.w3.org/2000/svg" viewBox="0 0 44 44"><defs><style>.cls-1{opacity:0.3;}.cls-2,.cls-3,.cls-4{fill:none;}.cls-3,.cls-4{stroke:#000;stroke-linecap:round;stroke-linejoin:round;}.cls-3{stroke-width:2px;}</style></defs><g id="레이어_2" data-name="레이어 2"><g id="레이어_1-2" data-name="레이어 1"><g class="cls-1"><rect class="cls-2" width="44" height="44"/></g><path class="cls-3" d="M22,38.3c-1.16-2.91-3.42-3-4.9-7-.94-2.57,0-5.22-.83-7.83H14.63a1.83,1.83,0,0,0-1,.26,18.57,18.57,0,0,1-3.93,1.88,6.48,6.48,0,0,0-4,4.71Q4.85,36,4,41.61"/><line class="cls-3" x1="4" y1="42" x2="22" y2="42"/><path class="cls-3" d="M22,38.3c1.16-2.91,3.42-3,4.9-7,.94-2.57,0-5.22.83-7.83h1.64a1.83,1.83,0,0,1,.95.26,18.57,18.57,0,0,0,3.93,1.88,6.48,6.48,0,0,1,4,4.71Q39.16,36,40,41.61"/><line class="cls-3" x1="40" y1="42" x2="22" y2="42"/><path class="cls-4" d="M18.73,21s.77.83,3.27.83S25.27,21,25.27,21"/><path class="cls-3" d="M29,15.39a8.62,8.62,0,1,1-8.8-13.24,8.65,8.65,0,0,1,10,10.29"/><line class="cls-3" x1="35.73" y1="20.2" x2="29.18" y2="15.7"/></g></g></svg>