<svg xmlns="http://www.w3.org/2000/svg" viewBox="0 0 44 44"><defs><style>.cls-1{opacity:0.3;}.cls-2,.cls-3{fill:none;}.cls-3{stroke:#000;stroke-linecap:round;stroke-linejoin:round;stroke-width:2px;}</style></defs><g id="레이어_2" data-name="레이어 2"><g id="레이어_1-2" data-name="레이어 1"><g class="cls-1"><rect class="cls-2" width="44" height="44"/></g><path class="cls-3" d="M8.75,16.74v-2a2.56,2.56,0,0,1,.84-1.86,3,3,0,0,1,2-.77H38.88a2.75,2.75,0,0,1,2.87,2.63V29.23a2.75,2.75,0,0,1-2.87,2.63H11.62a2.75,2.75,0,0,1-2.87-2.63V22.65"/><circle class="cls-3" cx="18.25" cy="22" r="1"/><circle class="cls-3" cx="25.25" cy="22" r="1"/><circle class="cls-3" cx="32.25" cy="22" r="1"/><line class="cls-3" x1="8.8" y1="16.67" x2="2.25" y2="16.67"/><line class="cls-3" x1="8.8" y1="16.67" x2="8.8" y2="16.67"/><line class="cls-3" x1="2.25" y1="16.67" x2="8.8" y2="22.67"/></g></g></svg>