<svg xmlns="http://www.w3.org/2000/svg" viewBox="0 0 44 44"><defs><style>.cls-1{opacity:0.3;}.cls-2,.cls-3{fill:none;}.cls-3{stroke:#000;stroke-linecap:round;stroke-linejoin:round;stroke-width:2px;}</style></defs><g id="레이어_2" data-name="레이어 2"><g id="레이어_1-2" data-name="레이어 1"><g class="cls-1"><rect class="cls-2" width="44" height="44"/></g><path class="cls-3" d="M29,34.7a14.36,14.36,0,0,1-3,1.24"/><path class="cls-3" d="M35.94,26a14.36,14.36,0,0,1-1.24,3"/><polyline class="cls-3" points="36 26 42 25 42 22"/><polyline class="cls-3" points="29.05 34.71 34 38.24 38.24 34 34.71 29.05"/><polyline class="cls-3" points="22 42 25 42 26 36"/><path class="cls-3" d="M29,9.3a14.36,14.36,0,0,0-3-1.24"/><path class="cls-3" d="M35.94,18a14.36,14.36,0,0,0-1.24-3"/><polyline class="cls-3" points="36 18 42 19 42 22"/><polyline class="cls-3" points="29.05 9.29 34 5.76 38.24 10 34.71 14.95"/><polyline class="cls-3" points="22 2 25 2 26 8"/><path class="cls-3" d="M15,34.7a14.36,14.36,0,0,0,3,1.24"/><path class="cls-3" d="M8.06,26A14.36,14.36,0,0,0,9.3,29"/><polyline class="cls-3" points="8 26 2 25 2 22"/><polyline class="cls-3" points="14.95 34.71 10 38.24 5.76 34 9.29 29.05"/><polyline class="cls-3" points="22 42 19 42 18 36"/><path class="cls-3" d="M15,9.3a14.36,14.36,0,0,1,3-1.24"/><path class="cls-3" d="M8.06,18A14.36,14.36,0,0,1,9.3,15"/><polyline class="cls-3" points="8 18 2 19 2 22"/><polyline class="cls-3" points="14.95 9.29 10 5.76 5.76 10 9.29 14.95"/><polyline class="cls-3" points="22 2 19 2 18 8"/><path class="cls-3" d="M25,27.2A6,6,0,1,1,27.2,25"/></g></g></svg>