<svg xmlns="http://www.w3.org/2000/svg" viewBox="0 0 44 44"><defs><style>.cls-1{opacity:0.3;}.cls-2,.cls-3{fill:none;}.cls-3{stroke:#000;stroke-linecap:round;stroke-linejoin:round;stroke-width:2px;}</style></defs><g id="레이어_2" data-name="레이어 2"><g id="레이어_1-2" data-name="레이어 1"><g class="cls-1"><rect class="cls-2" width="44" height="44"/></g><path class="cls-3" d="M29,18.5a7.21,7.21,0,0,1-7,7,7.22,7.22,0,0,1-5-2.33,7.06,7.06,0,0,1-2-4.67,7.23,7.23,0,0,1,7-7A7,7,0,0,1,29,18.5Z"/><path class="cls-3" d="M10,32.5a12.9,12.9,0,0,1,3-6,12.77,12.77,0,0,1,4-3"/><path class="cls-3" d="M34,32.5a12.9,12.9,0,0,0-3-6,12.77,12.77,0,0,0-4-3"/><path class="cls-3" d="M37.2,35A20,20,0,1,0,34,38"/></g></g></svg>